<?xml version="1.0" standalone="no"?>
<!DOCTYPE svg PUBLIC "-//W3C//DTD SVG 20010904//EN"
 "http://www.w3.org/TR/2001/REC-SVG-20010904/DTD/svg10.dtd">
<svg version="1.0" xmlns="http://www.w3.org/2000/svg"
 width="465.000000pt" height="108.000000pt" viewBox="0 0 465.000000 108.000000"
 preserveAspectRatio="xMidYMid meet">

<g transform="translate(0.000000,108.000000) scale(0.100000,-0.100000)"
fill="#FF0000" stroke="none">
<path d="M0 1002 l0 -79 38 -7 c61 -9 127 -59 156 -118 14 -29 26 -62 26 -75
0 -22 3 -23 80 -23 l79 0 3 -76 3 -77 47 -12 c26 -6 63 -24 83 -40 36 -27 85
-112 85 -147 0 -16 10 -18 79 -18 l80 0 -5 37 c-23 166 -145 294 -312 326
l-59 11 -11 59 c-31 167 -153 282 -329 312 l-43 7 0 -80z"/>
<path d="M380 1002 l0 -79 38 -6 c81 -13 166 -98 179 -179 l6 -38 72 0 c39 0
74 2 77 5 3 3 1 30 -4 61 -25 160 -151 280 -325 309 l-43 7 0 -80z"/>
<path d="M1140 705 l0 -375 49 0 c27 0 51 5 53 11 2 6 20 2 48 -10 170 -77
364 62 347 247 -6 71 -25 111 -79 162 -65 64 -162 85 -243 54 -83 -32 -75 -45
-75 130 l0 156 -50 0 -50 0 0 -375z m327 -25 c121 -73 65 -265 -77 -265 -52 0
-87 19 -124 68 -26 35 -26 113 0 152 42 64 136 85 201 45z"/>
<path d="M3620 705 l0 -375 49 0 c28 0 51 5 53 11 3 8 15 6 38 -7 24 -12 64
-19 126 -22 l92 -4 3 51 4 51 -60 0 c-114 0 -168 32 -195 116 -17 50 9 116 58
149 31 21 48 25 114 25 l78 0 0 55 0 55 -72 0 c-40 -1 -91 -8 -113 -16 -83
-32 -75 -45 -75 130 l0 156 -50 0 -50 0 0 -375z"/>
<path d="M4130 726 l0 -236 55 0 55 0 -2 233 -3 232 -52 3 -53 3 0 -235z"/>
<path d="M4400 733 c0 -208 2 -232 21 -273 11 -25 32 -58 47 -74 32 -34 116
-76 155 -76 26 0 27 2 27 49 0 47 -2 50 -30 56 -40 9 -89 51 -106 92 -8 18
-14 67 -14 113 l0 80 75 0 75 0 0 50 0 50 -75 0 -75 0 0 80 0 80 -50 0 -50 0
0 -227z"/>
<path d="M1916 790 c-174 -69 -215 -283 -80 -414 67 -65 199 -85 282 -42 18 9
32 12 32 6 0 -6 24 -10 56 -10 l56 0 -4 148 c-4 158 -14 192 -71 254 -63 68
-183 94 -271 58z m157 -105 c72 -34 99 -133 57 -202 -21 -34 -85 -73 -121 -73
-44 0 -104 38 -128 81 -69 122 64 255 192 194z"/>
<path d="M2580 801 c-14 -4 -40 -15 -57 -24 -18 -10 -55 -17 -83 -17 l-50 0 0
-215 0 -215 55 0 55 0 0 138 c0 162 11 190 86 224 56 24 100 18 145 -19 50
-42 59 -77 59 -218 l0 -125 50 0 50 0 0 145 c0 135 -2 149 -25 194 -25 50 -65
90 -118 117 -35 19 -131 27 -167 15z"/>
<path d="M3180 801 c-128 -39 -200 -142 -187 -267 6 -60 34 -118 74 -156 69
-66 186 -87 272 -48 24 11 45 20 48 20 3 0 3 -34 1 -74 -4 -80 -18 -110 -71
-150 -35 -26 -114 -27 -151 -2 -33 21 -66 73 -66 104 0 20 -5 22 -55 22 -63 0
-66 -6 -40 -81 22 -61 55 -101 111 -131 133 -72 289 -25 350 106 23 49 24 61
24 261 0 200 -1 212 -24 261 -49 105 -180 167 -286 135z m130 -116 c70 -36 98
-142 54 -202 -69 -92 -180 -94 -241 -3 -44 64 -21 169 45 205 35 19 106 19
142 0z"/>
<path d="M0 626 c0 -53 4 -78 13 -80 6 -2 31 -9 55 -15 74 -21 132 -85 147
-164 l7 -37 80 0 80 0 -7 43 c-29 173 -159 300 -331 324 l-44 6 0 -77z"/>
<path d="M4130 381 l0 -51 56 0 55 0 -3 48 -3 47 -52 3 -53 3 0 -50z"/>
</g>
</svg>
